<?xml version="1.0" standalone="no"?>
<!DOCTYPE svg PUBLIC "-//W3C//DTD SVG 20010904//EN"
 "http://www.w3.org/TR/2001/REC-SVG-20010904/DTD/svg10.dtd">
<svg version="1.0" xmlns="http://www.w3.org/2000/svg"
 width="973.000000pt" height="937.000000pt" viewBox="0 0 973.000000 937.000000"
 preserveAspectRatio="xMidYMid meet">
<metadata>
Created by potrace 1.13, written by Peter Selinger 2001-2015
</metadata>
<g transform="translate(0.000000,937.000000) scale(0.100000,-0.100000)"
fill="#000000" stroke="none">
<path d="M3845 7545 c-166 -17 -256 -35 -425 -86 -113 -35 -273 -100 -343
-141 -26 -15 -51 -28 -55 -28 -4 0 -31 -16 -61 -35 -29 -19 -55 -35 -57 -35
-8 0 -69 -44 -72 -52 -2 -5 -8 -8 -13 -8 -19 0 -202 -152 -288 -241 -110 -112
-213 -241 -294 -366 -44 -67 -134 -239 -164 -310 -7 -18 -19 -48 -27 -65 -7
-18 -22 -55 -32 -83 l-20 -50 -234 -6 c-129 -3 -246 -11 -260 -16 -14 -6 -50
-14 -80 -18 -30 -4 -59 -11 -65 -15 -5 -4 -26 -11 -45 -14 -19 -4 -53 -14 -75
-23 -22 -8 -58 -22 -80 -30 -71 -28 -219 -102 -273 -138 -30 -19 -56 -35 -58
-35 -13 0 -152 -117 -237 -200 -92 -89 -227 -249 -227 -269 0 -5 -3 -11 -8
-13 -7 -3 -112 -175 -112 -184 0 -3 -13 -33 -29 -68 -43 -90 -74 -189 -117
-361 -21 -87 -31 -472 -15 -585 18 -124 45 -234 86 -350 62 -175 192 -400 314
-540 181 -209 386 -359 631 -461 52 -22 104 -44 115 -49 11 -5 36 -12 55 -16
19 -3 40 -10 45 -14 6 -4 30 -11 55 -15 25 -3 59 -11 75 -16 17 -5 100 -16
185 -24 132 -13 484 -15 2401 -15 1996 0 2262 2 2385 16 76 9 146 20 154 24 8
4 34 11 58 15 24 4 56 13 70 21 15 8 33 14 39 14 20 0 141 59 233 113 229 135
418 342 529 581 160 341 177 710 50 1064 -143 398 -482 719 -879 835 -30 8
-80 23 -110 31 -30 8 -107 18 -170 22 -164 9 -160 5 -160 161 0 188 -51 465
-116 636 -8 20 -21 56 -30 80 -9 23 -32 75 -50 115 -19 39 -34 74 -34 76 0 6
-131 226 -142 241 -5 6 -31 41 -59 79 -28 37 -73 91 -100 120 -27 28 -49 54
-49 58 0 7 -184 176 -241 220 -63 51 -124 94 -164 118 -22 13 -42 26 -45 29
-7 9 -62 38 -175 93 -143 71 -148 73 -270 112 -198 64 -283 82 -475 101 -160
17 -282 17 -445 0z m485 -533 c67 -10 180 -37 215 -51 11 -4 45 -16 75 -26 82
-26 252 -110 345 -170 115 -74 275 -214 355 -310 75 -90 100 -123 100 -133 0
-6 3 -12 8 -14 15 -6 80 -115 125 -208 79 -164 107 -255 147 -480 5 -30 10
-139 10 -242 0 -285 -40 -467 -157 -705 -35 -71 -37 -66 53 -115 32 -17 86
-46 119 -64 33 -18 85 -45 115 -60 30 -15 57 -29 60 -33 3 -3 20 -14 39 -24
42 -22 54 -13 88 63 13 30 31 71 40 90 38 84 43 96 49 123 3 15 10 30 15 33 5
3 9 16 9 30 0 14 12 36 27 50 27 25 32 26 118 20 204 -12 310 -46 471 -153
122 -80 244 -238 307 -398 51 -129 64 -347 28 -486 -57 -221 -180 -389 -381
-520 -68 -44 -197 -97 -276 -111 -85 -17 -4730 -16 -4829 0 -294 48 -571 215
-766 462 -41 52 -139 213 -139 228 0 6 -6 23 -14 39 -46 92 -74 200 -86 341
-22 264 27 510 140 703 17 27 30 52 30 55 0 28 217 263 305 330 53 41 212 134
228 134 7 0 17 4 23 9 19 19 133 54 269 83 63 13 429 5 470 -10 17 -6 62 -21
100 -33 98 -30 206 -82 302 -145 l82 -53 43 52 c24 29 48 58 53 65 6 7 15 18
20 25 6 7 24 30 40 52 17 22 32 42 35 45 13 12 107 137 117 154 9 17 4 25 -37
58 -26 21 -50 38 -53 38 -3 0 -25 13 -49 29 -24 16 -79 48 -122 72 -78 42 -78
42 -73 78 4 31 50 146 77 191 5 8 18 33 29 56 12 22 47 79 79 128 134 199 318
372 522 493 118 69 261 135 320 148 19 4 40 11 45 15 10 8 69 22 175 41 30 6
73 14 95 19 51 11 380 5 465 -8z"/>
<path d="M8602 5754 c-185 -180 -189 -186 -153 -224 37 -38 107 -119 121 -140
8 -12 22 -30 31 -39 65 -66 228 -348 289 -501 12 -30 26 -64 31 -75 36 -84 91
-291 110 -415 5 -36 14 -94 20 -130 15 -90 6 -489 -14 -610 -31 -187 -78 -352
-146 -515 -20 -45 -123 -252 -139 -277 -9 -14 -30 -48 -46 -75 -39 -65 -173
-239 -235 -304 -28 -30 -51 -60 -51 -68 0 -15 276 -291 338 -339 l34 -26 67
70 c37 38 91 101 121 139 30 39 59 75 65 81 5 6 17 22 25 34 8 12 23 33 33 45
9 13 17 26 17 28 0 3 19 34 42 69 23 35 55 86 70 113 33 58 138 273 138 281 0
3 9 24 19 47 38 84 93 250 112 336 5 25 14 59 19 75 15 47 47 237 62 371 23
209 13 523 -23 720 -5 28 -14 77 -19 110 -9 56 -21 101 -56 220 -20 71 -52
169 -63 197 -5 12 -19 48 -31 78 -63 163 -181 384 -275 519 -130 185 -296 381
-322 381 -6 0 -92 -79 -191 -176z"/>
<path d="M8039 5312 c-23 -7 -359 -345 -359 -362 0 -8 15 -31 33 -50 40 -42
137 -165 137 -173 0 -4 10 -21 23 -40 33 -48 85 -159 120 -252 88 -236 96
-550 22 -820 -9 -33 -21 -64 -26 -69 -5 -6 -9 -17 -9 -26 0 -23 -86 -191 -135
-265 -42 -62 -47 -69 -114 -148 -23 -27 -41 -51 -41 -53 0 -3 39 -42 86 -87
47 -45 129 -124 182 -174 53 -51 104 -93 113 -93 21 0 125 123 207 245 56 83
150 257 183 340 90 222 144 521 135 750 -8 205 -24 313 -73 485 -41 143 -135
356 -202 456 -17 25 -31 48 -31 51 0 3 -16 25 -35 49 -19 23 -35 47 -35 53 0
6 -4 11 -8 11 -5 0 -20 15 -33 34 -45 64 -125 142 -140 138z"/>
</g>
</svg>
